HIERARCHY
ROOT SpineBase
{
  OFFSET 0.000000 0.000000 0.000000
  CHANNELS 6 Xposition Yposition Zposition Zrotation Xrotation Yrotation
  JOINT SpineMid
  {
    OFFSET -0.000000 28.886108 0.000000
    CHANNELS 3 Zrotation Xrotation Yrotation
    JOINT SpineShoulder
    {
      OFFSET 0.014476 21.361078 -0.685274
      CHANNELS 3 Zrotation Xrotation Yrotation
      JOINT Neck
      {
        OFFSET 0.004008 7.047006 -0.493939
        CHANNELS 3 Zrotation Xrotation Yrotation
        JOINT Head
        {
          OFFSET 3.717219 12.377921 -1.758208
          CHANNELS 3 Zrotation Xrotation Yrotation
          End Site
          {
            OFFSET 0 0 0
          }
        }
      }
      JOINT ShoulderLeft
      {
        OFFSET -13.128236 -4.149176 -8.699905
        CHANNELS 3 Zrotation Xrotation Yrotation
        JOINT ElbowLeft
        {
          OFFSET -6.372904 -19.975287 0.969703
          CHANNELS 3 Zrotation Xrotation Yrotation
          JOINT WristLeft
          {
            OFFSET 17.780363 -11.372756 -14.745954
            CHANNELS 3 Zrotation Xrotation Yrotation
            JOINT HandLeft
            {
              OFFSET 6.208629 0.099186 -0.297686
              CHANNELS 3 Zrotation Xrotation Yrotation
              JOINT HandTipLeft
              {
                OFFSET 5.916283 -2.374157 0.872894
                CHANNELS 3 Zrotation Xrotation Yrotation
                End Site
                {
                  OFFSET 0 0 0
                }
              }
              JOINT ThumbLeft
              {
                OFFSET -0.830845 4.938208 6.026024
                CHANNELS 3 Zrotation Xrotation Yrotation
                End Site
                {
                  OFFSET 0 0 0
                }
              }
            }
          }
        }
      }
      JOINT ShoulderRight
      {
        OFFSET 14.989930 -4.206965 2.708956
        CHANNELS 3 Zrotation Xrotation Yrotation
        JOINT ElbowRight
        {
          OFFSET 2.202397 -17.468242 -19.727892
          CHANNELS 3 Zrotation Xrotation Yrotation
          JOINT WristRight
          {
            OFFSET -10.959926 -13.883143 -7.314729
            CHANNELS 3 Zrotation Xrotation Yrotation
            JOINT HandRight
            {
              OFFSET -2.827933 -1.900234 0.460608
              CHANNELS 3 Zrotation Xrotation Yrotation
              JOINT HandTipRight
              {
                OFFSET -3.492105 -1.440632 -1.141382
                CHANNELS 3 Zrotation Xrotation Yrotation
                End Site
                {
                  OFFSET 0 0 0
                }
              }
              JOINT ThumbRight
              {
                OFFSET -6.286080 5.863355 -2.812989
                CHANNELS 3 Zrotation Xrotation Yrotation
                End Site
                {
                  OFFSET 0 0 0
                }
              }
            }
          }
        }
      }
    }
  }
  JOINT HipLeft
  {
    OFFSET -6.001949 0.896960 -5.479815
    CHANNELS 3 Zrotation Xrotation Yrotation
    JOINT KneeLeft
    {
      OFFSET -5.738820 -25.109989 5.697375
      CHANNELS 3 Zrotation Xrotation Yrotation
      JOINT AnkleLeft
      {
        OFFSET -5.177210 -34.667279 10.024643
        CHANNELS 3 Zrotation Xrotation Yrotation
        JOINT FootLeft
        {
          OFFSET 3.492805 -7.500389 -0.494266
          CHANNELS 3 Zrotation Xrotation Yrotation
          End Site
          {
            OFFSET 0 0 0
          }
        }
      }
    }
  }
  JOINT HipRight
  {
    OFFSET 5.433409 0.063829 -1.382733
    CHANNELS 3 Zrotation Xrotation Yrotation
    JOINT KneeRight
    {
      OFFSET -3.545453 -26.979249 10.280460
      CHANNELS 3 Zrotation Xrotation Yrotation
      JOINT AnkleRight
      {
        OFFSET -5.462978 -31.708910 11.261189
        CHANNELS 3 Zrotation Xrotation Yrotation
        JOINT FootRight
        {
          OFFSET 3.565038 -4.145650 -11.545655
          CHANNELS 3 Zrotation Xrotation Yrotation
          End Site
          {
            OFFSET 0 0 0
          }
        }
      }
    }
  }
}
MOTION
Frames: 10
Frame Time: 0.033333
29.552220 67.387221 358.203954 1.986096 -1.385629 -27.331213 0.416542 0.211391 27.428493 0.280363 -0.273587 0.115901 0.402991 0.221790 0.679266 0.000000 0.000000 0.000000 -0.620390 6.181785 -1.648548 13.796270 0.848470 -8.363361 3.718169 -1.219260 24.246162 39.513963 -10.679387 1.844502 0.000000 0.000000 0.000000 0.000000 0.000000 0.000000 -4.972185 9.271224 3.318835 -2.267345 -0.384527 -6.458413 1.429116 11.514532 -24.563077 12.916582 -12.892151 25.065735 0.000000 0.000000 0.000000 0.000000 0.000000 0.000000 -3.730343 -1.053937 27.082455 2.923761 2.128343 0.334100 -2.094038 4.328785 2.693802 0.000000 0.000000 0.000000 -2.960377 2.336844 27.268872 -0.315830 -0.413600 -0.141981 -10.279069 -27.758730 11.119911 0.000000 0.000000 0.000000
29.537640 67.413402 358.198612 2.056531 -1.373350 -27.426817 0.427394 0.210207 27.527326 0.288305 -0.284876 0.119888 0.663767 0.217393 0.722227 0.000000 0.000000 0.000000 -0.590260 6.021404 -1.599433 15.038139 1.845555 -8.737304 -3.492398 -4.150180 27.185183 37.390230 -9.830691 -0.411116 0.000000 0.000000 0.000000 0.000000 0.000000 0.000000 -4.426383 9.793909 2.647721 -3.368726 -0.887816 -5.705560 -2.305359 11.110800 -23.859200 3.068633 -21.767269 39.132936 0.000000 0.000000 0.000000 0.000000 0.000000 0.000000 -3.732682 -1.176304 27.199562 2.983518 2.213474 0.327447 -2.539309 1.966886 1.577961 0.000000 0.000000 0.000000 -3.141257 2.296220 27.318791 -0.158676 -0.539171 -0.060969 -11.241242 -30.912270 11.066279 0.000000 0.000000 0.000000
29.529692 67.432166 358.198132 2.112487 -1.364651 -27.466526 0.450535 0.216535 27.569885 0.304692 -0.299489 0.124481 1.095822 0.157615 0.808149 0.000000 0.000000 0.000000 -0.565416 5.816482 -1.533402 16.874240 3.184048 -9.356633 -11.509039 -7.987591 29.010992 37.776167 -7.725678 -0.591489 0.000000 0.000000 0.000000 0.000000 0.000000 0.000000 -3.258388 11.772880 1.418731 -5.036434 -5.748984 -2.747534 -16.649569 3.156300 -12.449477 2.830034 -13.606461 34.408372 0.000000 0.000000 0.000000 0.000000 0.000000 0.000000 -3.746443 -1.269940 27.253099 3.079501 2.269141 0.336939 -1.230861 13.201432 6.638511 0.000000 0.000000 0.000000 -3.203081 2.280110 27.353682 -0.248717 -0.608786 -0.084099 -10.769891 -29.964882 9.914170 0.000000 0.000000 0.000000
29.518116 67.448350 358.201868 2.198131 -1.385259 -27.481365 0.486606 0.212972 27.589773 0.319170 -0.321489 0.130542 1.535257 0.422213 0.801820 0.000000 0.000000 0.000000 -0.638512 5.582449 -1.440687 17.102545 3.817828 -9.379665 -17.140945 -10.469072 28.280068 35.115936 -5.715046 -1.748034 0.000000 0.000000 0.000000 0.000000 0.000000 0.000000 -2.990759 13.013701 1.089795 -5.557973 -8.563151 -1.449463 -21.835670 -5.067267 -3.852738 1.019758 -6.151358 29.144310 0.000000 0.000000 0.000000 0.000000 0.000000 0.000000 -3.800207 -1.324511 27.281245 3.108554 2.258568 0.342131 -1.625242 13.975373 7.024107 0.000000 0.000000 0.000000 -3.325738 2.284570 27.357218 -0.336913 -0.708461 -0.101893 -9.550084 -26.196304 9.769062 0.000000 0.000000 0.000000
29.505552 67.460065 358.204557 2.300038 -1.422308 -27.425527 0.523074 0.211289 27.539995 0.327890 -0.337400 0.136797 2.033438 0.828028 0.753357 0.000000 0.000000 0.000000 -0.410352 5.395409 -1.367696 16.407184 4.071967 -9.210572 -20.825778 -11.747342 25.345314 35.065966 -1.889125 1.773412 0.000000 0.000000 0.000000 0.000000 0.000000 0.000000 -3.573001 11.280652 1.391048 -6.731449 -3.917679 -2.764686 -22.151284 -7.615772 -4.696507 0.823638 -8.004538 32.229398 0.000000 0.000000 0.000000 0.000000 0.000000 0.000000 -3.890218 -1.337923 27.233218 3.074715 2.186762 0.344099 -2.866717 7.684320 4.216439 0.000000 0.000000 0.000000 -3.440419 2.288485 27.300515 -0.389512 -0.749722 -0.115647 -8.217292 -20.510248 11.373957 0.000000 0.000000 0.000000
29.492267 67.474057 358.218929 2.427952 -1.476210 -27.352289 0.541300 0.200849 27.474028 0.325552 -0.347072 0.142427 2.501744 1.404610 0.637556 0.000000 0.000000 0.000000 -0.276292 5.335046 -1.332747 14.903302 3.624901 -8.805988 -21.644111 -11.416107 22.723515 33.706711 -0.962727 2.151664 0.000000 0.000000 0.000000 0.000000 0.000000 0.000000 -4.796739 9.882617 2.466766 -6.467394 -0.490245 -4.336193 -11.391860 -4.153839 -7.553915 -8.500021 -15.221417 36.607004 0.000000 0.000000 0.000000 0.000000 0.000000 0.000000 -3.997336 -1.277954 27.167105 3.064892 2.126588 0.358454 -3.543070 6.585942 3.743618 0.000000 0.000000 0.000000 -3.639574 2.336561 27.209313 -0.352392 -0.824694 -0.091453 -6.019698 -12.294039 10.503876 0.000000 0.000000 0.000000
29.472944 67.491118 358.237594 2.549443 -1.525347 -27.194194 0.532943 0.188004 27.322317 0.312809 -0.346126 0.145919 3.062206 1.998447 0.508584 0.000000 0.000000 0.000000 -0.107705 5.265968 -1.300831 13.436333 2.927000 -8.685995 -17.811072 -9.509504 21.639702 32.319115 0.033939 4.034199 0.000000 0.000000 0.000000 0.000000 0.000000 0.000000 -6.142347 7.949159 3.684810 -6.737917 4.321744 -6.044077 5.355758 1.254229 -13.738987 -18.581609 -26.269378 40.514051 0.000000 0.000000 0.000000 0.000000 0.000000 0.000000 -4.077238 -1.164887 27.018426 2.768573 1.965339 0.317809 -2.816200 14.974765 7.723717 0.000000 0.000000 0.000000 -3.794542 2.383172 27.045242 -0.320556 -0.855425 -0.076394 -7.391497 -17.128231 11.270316 0.000000 0.000000 0.000000
29.442513 67.510940 358.251306 2.653079 -1.563341 -26.993090 0.508673 0.188653 27.126031 0.298123 -0.329709 0.147858 3.585738 2.504545 0.385931 0.000000 0.000000 0.000000 0.052064 5.078443 -1.239510 13.342821 2.922812 -9.130052 -11.398693 -7.333332 22.331177 28.029882 -2.523140 1.091116 0.000000 0.000000 0.000000 0.000000 0.000000 0.000000 -6.419034 7.395500 3.862011 -5.401594 4.589335 -6.534887 4.183186 4.874610 -18.309566 -16.004745 -31.461658 45.350637 0.000000 0.000000 0.000000 0.000000 0.000000 0.000000 -4.093006 -1.030358 26.837992 2.574420 1.889532 0.292207 -2.103507 30.394287 14.997293 0.000000 0.000000 0.000000 -3.830962 2.445248 26.874834 -0.392633 -0.803136 -0.115825 -6.056106 -13.403128 9.481996 0.000000 0.000000 0.000000
29.395412 67.552572 358.269476 2.740390 -1.631443 -26.788102 0.494168 0.181916 26.926148 0.286131 -0.338131 0.150161 4.039217 3.257041 0.175290 0.000000 0.000000 0.000000 0.424503 4.939519 -1.176442 11.934458 2.484808 -9.082467 -2.860574 -4.397005 18.330621 20.119223 -4.870709 -0.990747 0.000000 0.000000 0.000000 0.000000 0.000000 0.000000 -7.666932 4.478597 4.914443 -4.458123 10.506271 -8.656424 12.872266 7.613177 -24.156144 -18.913690 -42.083842 51.669145 0.000000 0.000000 0.000000 0.000000 0.000000 0.000000 -4.084687 -0.825210 26.659086 2.498422 1.903543 0.287850 -0.539111 27.750331 13.169812 0.000000 0.000000 0.000000 -3.808515 2.588196 26.726924 -0.587788 -0.803458 -0.195589 -3.115699 -7.480262 4.733763 0.000000 0.000000 0.000000
29.323548 67.611129 358.294303 2.802567 -1.732075 -26.609480 0.520716 0.135949 26.754018 0.272031 -0.384394 0.153098 4.318095 4.309805 -0.140415 0.000000 0.000000 0.000000 0.583854 4.879323 -1.097622 10.477891 2.360976 -8.477389 2.592015 -2.534970 18.074476 17.789456 -4.449554 0.087211 0.000000 0.000000 0.000000 0.000000 0.000000 0.000000 -8.122334 2.515896 5.161576 -5.158624 14.172668 -8.747184 18.239244 8.631969 -27.261820 -23.802333 -47.600722 51.647246 0.000000 0.000000 0.000000 0.000000 0.000000 0.000000 -4.029525 -0.540636 26.515818 2.480328 1.980251 0.293256 0.456342 34.638667 15.975414 0.000000 0.000000 0.000000 -3.809564 2.794407 26.596858 -0.654051 -0.859955 -0.217525 -2.434651 -5.150453 4.385107 0.000000 0.000000 0.000000
